HIERARCHY
ROOT hip
{
  OFFSET 0 0 0
  CHANNELS 6 Xposition Yposition Zposition Zrotation Yrotation Xrotation
  JOINT abdomen
  {
    OFFSET 0 20.6881 -0.73152
    CHANNELS 3 Zrotation Xrotation Yrotation
    JOINT chest
    {
      OFFSET 0 11.7043 -0.48768
      CHANNELS 3 Zrotation Xrotation Yrotation
      JOINT neck
      {
        OFFSET 0 22.1894 -2.19456
        CHANNELS 3 Zrotation Xrotation Yrotation
        JOINT head
        {
          OFFSET -0.24384 7.07133 1.2192
          CHANNELS 3 Zrotation Xrotation Yrotation
          JOINT leftEye
          {
            OFFSET 4.14528 8.04674 8.04672
            CHANNELS 3 Zrotation Xrotation Yrotation
            End Site
            {
              OFFSET 1 0 0
            }
          }
          JOINT rightEye
          {
            OFFSET -3.6576 8.04674 8.04672
            CHANNELS 3 Zrotation Xrotation Yrotation
            End Site
            {
              OFFSET 1 0 0
            }
          }
        }
      }
      JOINT rCollar
      {
        OFFSET -2.68224 19.2634 -4.8768
        CHANNELS 3 Zrotation Xrotation Yrotation
        JOINT rShldr
        {
          OFFSET -8.77824 -1.95073 1.46304
          CHANNELS 3 Zrotation Xrotation Yrotation
          JOINT rForeArm
          {
            OFFSET -28.1742 -1.7115 0.48768
            CHANNELS 3 Zrotation Xrotation Yrotation
            JOINT rHand
            {
              OFFSET -22.5879 0.773209 7.07136
              CHANNELS 3 Zrotation Xrotation Yrotation
              JOINT rThumb1
              {
                OFFSET -1.2192 -0.487915 3.41376
                CHANNELS 3 Zrotation Xrotation Yrotation
                JOINT rThumb2
                {
                  OFFSET -3.37035 -0.52449 3.41376
                  CHANNELS 3 Zrotation Xrotation Yrotation
                  End Site
                  {
                    OFFSET -1.78271 -1.18214 1.43049
                  }
                }
              }
              JOINT rIndex1
              {
                OFFSET -7.75947 0.938293 5.60832
                CHANNELS 3 Zrotation Xrotation Yrotation
                JOINT rIndex2
                {
                  OFFSET -2.54057 -0.884171 1.56538
                  CHANNELS 3 Zrotation Xrotation Yrotation
                  End Site
                  {
                    OFFSET -1.62519 -0.234802 1.16502
                  }
                }
              }
              JOINT rMid1
              {
                OFFSET -8.24714 1.18213 3.41376
                CHANNELS 3 Zrotation Xrotation Yrotation
                JOINT rMid2
                {
                  OFFSET -3.10165 -0.590103 1.0647
                  CHANNELS 3 Zrotation Xrotation Yrotation
                  End Site
                  {
                    OFFSET -2.48547 -0.328903 0.83742
                  }
                }
              }
              JOINT rRing1
              {
                OFFSET -8.82822 0.546677 1.51678
                CHANNELS 3 Zrotation Xrotation Yrotation
                JOINT rRing2
                {
                  OFFSET -2.60934 -0.819778 -0.0198488
                  CHANNELS 3 Zrotation Xrotation Yrotation
                  End Site
                  {
                    OFFSET -2.33842 -0.294052 0.168128
                  }
                }
              }
              JOINT rPinky1
              {
                OFFSET -8.27202 -0.0477905 -0.4584
                CHANNELS 3 Zrotation Xrotation Yrotation
                JOINT rPinky2
                {
                  OFFSET -1.82734 -0.647385 -0.700984
                  CHANNELS 3 Zrotation Xrotation Yrotation
                  End Site
                  {
                    OFFSET -1.69225 -0.51767 -0.607171
                  }
                }
              }
            }
          }
        }
      }
      JOINT lCollar
      {
        OFFSET 2.68224 19.2634 -4.8768
        CHANNELS 3 Zrotation Xrotation Yrotation
        JOINT lShldr
        {
          OFFSET 8.77824 -1.95073 1.46304
          CHANNELS 3 Zrotation Xrotation Yrotation
          JOINT lForeArm
          {
            OFFSET 28.1742 -1.7115 0.48768
            CHANNELS 3 Zrotation Xrotation Yrotation
            JOINT lHand
            {
              OFFSET 22.5879 0.773209 7.07136
              CHANNELS 3 Zrotation Xrotation Yrotation
              JOINT lThumb1
              {
                OFFSET 1.2192 -0.487915 3.41376
                CHANNELS 3 Zrotation Xrotation Yrotation
                JOINT lThumb2
                {
                  OFFSET 3.37035 -0.52449 3.41376
                  CHANNELS 3 Zrotation Xrotation Yrotation
                  End Site
                  {
                    OFFSET 1.78271 -1.18214 1.43049
                  }
                }
              }
              JOINT lIndex1
              {
                OFFSET 7.75947 0.938293 5.60832
                CHANNELS 3 Zrotation Xrotation Yrotation
                JOINT lIndex2
                {
                  OFFSET 2.54057 -0.884171 1.56538
                  CHANNELS 3 Zrotation Xrotation Yrotation
                  End Site
                  {
                    OFFSET 1.62519 -0.234802 1.16502
                  }
                }
              }
              JOINT lMid1
              {
                OFFSET 8.24714 1.18213 3.41376
                CHANNELS 3 Zrotation Xrotation Yrotation
                JOINT lMid2
                {
                  OFFSET 3.10165 -0.590103 1.0647
                  CHANNELS 3 Zrotation Xrotation Yrotation
                  End Site
                  {
                    OFFSET 2.48547 -0.328903 0.83742
                  }
                }
              }
              JOINT lRing1
              {
                OFFSET 8.82822 0.546677 1.51678
                CHANNELS 3 Zrotation Xrotation Yrotation
                JOINT lRing2
                {
                  OFFSET 2.60934 -0.819778 -0.0198488
                  CHANNELS 3 Zrotation Xrotation Yrotation
                  End Site
                  {
                    OFFSET 2.33842 -0.294052 0.168128
                  }
                }
              }
              JOINT lPinky1
              {
                OFFSET 8.27202 -0.0477905 -0.4584
                CHANNELS 3 Zrotation Xrotation Yrotation
                JOINT lPinky2
                {
                  OFFSET 1.82734 -0.647385 -0.700984
                  CHANNELS 3 Zrotation Xrotation Yrotation
                  End Site
                  {
                    OFFSET 1.69225 -0.51767 -0.607171
                  }
                }
              }
            }
          }
        }
      }
    }
  }
  JOINT rButtock
  {
    OFFSET -8.77824 4.35084 1.2192
    CHANNELS 3 Zrotation Xrotation Yrotation
    JOINT rThigh
    {
      OFFSET 0 -1.70687 -2.19456
      CHANNELS 3 Zrotation Xrotation Yrotation
      JOINT rShin
      {
        OFFSET 0 -36.8199 0.73152
        CHANNELS 3 Zrotation Xrotation Yrotation
        JOINT rFoot
        {
          OFFSET 0.73152 -45.1104 -5.12064
          CHANNELS 3 Zrotation Xrotation Yrotation
          End Site
          {
            OFFSET -1.1221 -3.69964 12.103
          }
        }
      }
    }
  }
  JOINT lButtock
  {
    OFFSET 8.77824 4.35084 1.2192
    CHANNELS 3 Zrotation Xrotation Yrotation
    JOINT lThigh
    {
      OFFSET 0 -1.70687 -2.19456
      CHANNELS 3 Zrotation Xrotation Yrotation
      JOINT lShin
      {
        OFFSET 0 -36.8199 0.73152
        CHANNELS 3 Zrotation Xrotation Yrotation
        JOINT lFoot
        {
          OFFSET -0.73152 -45.1104 -5.12064
          CHANNELS 3 Zrotation Xrotation Yrotation
          End Site
          {
            OFFSET 1.1221 -3.69964 12.103
          }
        }
      }
    }
  }
}
MOTION
Frames:	8
Frame Time:	0.03333
0.0 0.0 0.0 0.0 0.0 0.0 0.0 0.0 0.0 0.0 0.0 0.0 0.0 0.0 0.0 0.0 0.0 0.0 0.0 0.0 0.0 0.0 0.0 0.0 0.0 0.0 0.0 0.0 0.0 0.0 0.0 0.0 0.0 0.0 0.0 0.0 0.0 0.0 0.0 0.0 0.0 0.0 0.0 0.0 0.0 0.0 0.0 0.0 0.0 0.0 0.0 0.0 0.0 0.0 0.0 0.0 0.0 0.0 0.0 0.0 0.0 0.0 0.0 0.0 0.0 0.0 0.0 0.0 0.0 0.0 0.0 0.0 0.0 0.0 0.0 0.0 0.0 0.0 0.0 0.0 0.0 0.0 0.0 0.0 0.0 0.0 0.0 0.0 0.0 0.0 0.0 0.0 0.0 0.0 0.0 0.0 0.0 0.0 0.0 0.0 0.0 0.0 0.0 0.0 0.0 0.0 0.0 0.0 0.0 0.0 0.0 0.0 0.0 0.0 0.0 0.0 0.0 0.0 0.0 0.0 0.0 0.0 0.0 0.0 0.0 0.0 0.0 0.0 0.0 0.0 0.0 0.0
-0.7250000000000001 72.9561 0.2913 -3.630442 54.258736 4.428651 -2.844427 6.374035 -155.889494 -0.71854 4.685735 161.717004 8.101975 32.015013 123.687524 -42.625979 32.78743 -123.316623 0.002144 0.0 0.003283 0.001552 -0.0 -0.000479 -159.061937 -40.632709 168.903018 -63.107371 -31.309008 -64.207116 172.9702 -21.993414 -139.850442 -16.268517 61.565359 9.6677 -80.965446 38.736476 44.498842 -136.596994 -25.048333 81.653423 37.21795 -57.917102 -0.641396 21.547814 -8.217659 -4.832682 0.047652 -0.138577 -0.026734 5.166687 -5.863003 -0.70446 -145.119068 0.185469 -179.186596 12.041315 34.673855 -5.072854 27.12452 80.264107 10.037016 14.386742 41.890468 7.261699 159.220482 -48.0285 -170.415205 81.662363 -22.516831 86.159252 -14.622091 65.563497 85.26468 -165.840124 -23.961266 -142.916696 78.030154 38.690001 -42.412861 158.809281 -37.368374 -82.353747 151.677928 -17.764621 -121.238471 -10.85232 0.955619 9.741532 36.034743 51.723482 -29.832112 -3.678647 -0.806815 0.036801 0.035126 5.256912 -1.654529 -10.31768 -6.515604 0.878341 126.796347 -26.618725 124.511972 -3.919898 2.2306 1.006268 -0.0 0.000232 0.002025 -0.195756 -52.78599 178.97833 4.141628 -81.528839 91.666829 24.883202 6.086467 94.676647 -179.998398 75.751995 -0.001653 170.634708 28.193751 19.243306 51.031814 63.771105 34.581576 77.83687 -73.804947 -5.740384
-0.9136 73.19489999999999 0.577 -3.877158 54.081259 3.903296 -3.455973 10.681243 0.499631 3.513833 -8.395418 5.416195 8.419614 31.60054 120.829807 -43.12104 30.762201 -120.844033 -0.001128 -0.0 0.00019 -0.001128 -0.0 0.00019 4.239769 -44.742829 -8.646435 72.755167 31.798727 -10.468864 10.017918 14.001198 44.818029 -14.124717 58.57795 8.264681 -173.314393 -10.987572 89.910667 -35.048245 -26.876598 3.712121 129.216155 -75.528526 76.342249 38.144023 -37.086099 -4.846884 7.904046 -24.80765 -3.012257 91.940132 -78.559231 63.028082 -0.001132 0.022793 0.006031 -61.419429 -86.807074 -82.969416 -135.819906 -11.891049 -133.183978 -20.884702 -36.929315 -22.879127 -1.61942 -11.047472 2.299307 116.300626 -45.766505 -142.492198 -100.911196 30.46121 121.457276 162.00712 55.997736 -137.866943 175.466958 -13.10955 -89.789574 138.404727 11.539955 -70.606545 -24.076752 -42.306208 5.558281 -98.053301 -63.175872 -41.11212 39.290757 53.365638 -32.878013 -10.056185 -20.32496 1.436727 -0.002723 1.854337 -0.583092 -9.087415 12.714106 -1.661136 43.363273 -47.547576 42.160479 150.214174 24.235943 145.763797 179.990237 75.749504 0.008032 -179.606283 26.318245 54.916573 77.726238 21.38876 29.085696 157.572668 70.716683 113.73798 0.000213 0.000138 -0.000274 -12.464266 -48.146355 180.0 -24.03507 -78.49003 12.897339 48.251372 23.18522 151.983088
-1.0467 73.5013 0.8335 -3.841791 53.822876 3.510151 -4.216127 10.284986 22.435026 1.010452 -9.123545 -16.67967 -8.668263 19.738554 -24.276016 26.397241 -30.182747 20.400529 0.00213 -0.0 -0.00417 0.002886 0.0 1.7e-05 3.269045 -26.755867 -5.240981 -103.634557 -13.496113 175.955792 90.682763 29.571606 -130.245139 176.775214 25.084688 153.239266 -171.654518 -9.33574 89.950121 172.000887 -23.614248 96.935792 -151.353011 -17.158571 121.132847 145.188143 -67.165175 87.067547 0.049094 -0.138268 -0.02751 11.363052 -24.938518 -1.563105 -0.022011 -1.724988 -0.543544 11.180893 -12.231877 -1.534701 26.967164 80.122932 10.144384 -21.525562 -37.200191 -21.697469 159.221304 -48.724906 -170.567881 1.563243 4.994136 64.893214 -0.060587 -19.975579 75.165539 -160.91948 -34.130855 -139.889172 173.770475 -11.439944 -89.892048 71.736129 3.485726 -21.23149 108.426496 34.159902 -91.742608 -25.716456 -33.202228 5.375519 159.364907 -2.685445 -142.597803 -29.977351 -60.064479 -7.099533 145.112675 -0.626493 178.93039 141.759113 -56.539047 163.973979 -12.986525 44.344663 -10.761295 -0.89304 -2.166764 1.007857 179.992869 75.749514 0.004879 -176.997735 28.41931 -1.377361 -4.915493 74.588452 -79.253792 100.624648 62.431185 3.834818 -0.0 0.001637 9.7e-05 -11.122471 -46.008813 -86.622247 -72.126026 5.435996 -4.128846 -156.452393 60.426033 -113.137702
-1.1683000000000001 73.7428 1.0063 -3.462333 53.723879 3.579223 -1.007446 7.25648 -97.429663 5.253301 1.741614 102.459386 8.506058 31.432666 121.008076 -41.958154 30.626744 -121.009951 0.001818 0.0 0.000826 0.001818 0.0 0.000826 -155.513444 -3.574813 161.85183 -49.039219 -6.423665 -17.343157 77.119328 30.447867 -118.221724 174.986004 17.89141 152.380923 2.016282 -2.000378 -0.276492 -42.426844 28.105457 37.258638 -160.10168 -33.16171 122.701158 33.2283 -39.028929 -7.837595 -82.840769 61.111845 74.532104 -144.18841 37.146675 131.458303 -0.016648 -1.323223 -0.415366 -156.095537 -15.989484 173.744845 -172.93062 83.288814 -144.312626 -148.455764 11.647299 -142.43749 0.273089 1.606707 -0.361906 -61.149104 26.530934 -45.297589 -104.984231 -34.640431 -58.527906 175.021044 33.528357 -145.7208 0.44016 0.43586 -0.069696 -16.283152 -24.724586 11.731838 -16.854658 -30.289647 5.890158 58.655314 49.384214 -47.306348 145.286331 29.523696 -132.691502 -22.416122 -49.873259 -2.155252 145.099522 -1.605797 178.625248 71.165357 -78.004643 92.805451 134.693852 -14.105797 132.115069 93.771395 -50.172712 93.39899 2.4e-05 -0.000571 -0.0 4.490034 -45.84495 6.246239 6.153784 75.537656 -112.973752 30.569164 64.950358 83.541728 0.001887 0.000353 -0.0 -14.706211 -45.23427 86.06178 71.384467 -14.957581 -19.259516 54.555626 -62.110764 -21.825091
-1.2743 73.9738 1.2175 -3.119587 54.029604 3.76275 -1.690524 8.789143 -42.172684 6.220772 -4.352239 47.265774 8.429007 24.40069 81.939381 -42.997477 2.729781 -92.221687 -0.001222 0.0 -0.003448 -0.000585 -0.0 0.000325 1.671467 -11.458669 -2.37939 -107.780255 -24.394098 165.878033 86.470871 25.973703 -117.820795 179.18146 30.27654 152.004226 -171.604146 -9.285803 89.950829 32.668539 -65.507071 26.674566 -151.929299 -18.230238 121.315943 -79.167845 57.459829 61.591306 0.047129 -0.138779 -0.025468 -21.613515 46.09292 17.538089 -0.008086 3.475595 1.092796 -140.646293 60.469163 154.519696 -146.224701 15.469866 -142.749283 -128.115563 -27.86742 -125.445176 -0.16303 -0.990084 0.218247 -16.196763 50.600653 -75.634526 95.568312 34.608273 -65.557035 -47.856513 -62.848576 -35.796182 -175.879937 -21.257445 -88.492214 4.226965 -58.299306 1.050985 1.16148 1.860743 -0.670524 9.676065 25.482607 -8.214493 36.03731 51.722276 -29.833843 -10.048184 -20.326494 1.447434 0.000876 -0.060957 0.018377 156.570891 -36.351821 -176.159115 -0.370258 0.970486 -0.34098 -10.037038 24.774383 -5.92306 0.0 -0.000677 0.000268 2.395378 -45.652473 69.676939 71.690111 22.204898 -169.575646 42.700459 41.47468 67.405446 0.000152 0.000843 -0.000195 -12.944548 -43.661513 -9.203851 3.536958 64.416469 -17.639199 95.09149 20.680345 0.015946
-1.351 74.2581 1.4664 -3.288949 54.351814 3.389161 -3.690169 8.983992 22.441048 0.740351 -8.753515 -17.466466 -1.582505 37.027737 -171.336316 10.532011 54.030038 155.40256 -0.000893 0.0 -0.00197 -0.000223 -0.0 0.001773 -0.048873 0.292404 0.065027 120.51672 -65.255536 49.122168 -176.072084 68.726726 -131.620975 -9.707772 46.302197 4.71693 -78.031234 38.688656 42.412365 -147.243999 -31.5083 83.110338 37.218062 -57.917081 -0.641967 12.073789 7.130283 -2.788731 -0.22006 0.638369 0.122911 -179.657743 -48.712272 141.478222 -145.120047 0.26668 -179.214633 10.196115 -0.130356 -9.010421 -126.797728 -26.619737 -124.512873 43.996433 79.551012 -7.144778 6.25145 26.219197 -7.467899 -84.981019 -2.760832 -60.163079 74.27868 56.493461 -109.275388 -3.689963 -4.217796 -1.898134 -114.53791 -50.244583 -55.721948 138.819963 20.551664 -94.142641 -37.21474 -57.918163 0.644146 -28.135317 -18.960629 4.75338 8.416428 20.880582 -5.644515 175.922604 -41.202649 -143.060042 132.482113 54.103246 -155.534159 -6.774137 36.805936 2.172971 79.224596 -51.404611 77.662273 8.202515 -23.807289 11.135065 179.990072 75.750234 0.006793 -176.534688 31.600298 -31.883484 -39.789558 64.216305 138.664428 -174.192873 35.280679 89.360004 179.996511 75.748705 0.002387 169.578269 31.479987 5.308495 26.387706 70.172946 72.140863 -60.922012 45.867033 -47.570599
-1.3689 74.5602 1.7161 -3.153035 54.565256 3.191822 -3.600589 8.709674 22.56507 0.821145 -8.696951 -17.665894 -13.402441 27.21625 -77.802512 46.043757 3.357263 66.925198 0.001228 -0.0 -0.001803 0.001894 0.0 0.001924 -152.941824 10.523637 158.536646 135.675869 -13.36998 177.453204 -176.265491 -15.186882 93.763369 151.184301 -41.351614 136.24024 2.017201 -2.000024 -0.275849 -123.664471 -14.242944 111.231318 -153.513798 -21.181995 121.759458 -159.099072 -11.889021 119.574927 -36.036166 51.722932 29.832753 -7.188854 26.202388 6.142229 0.000415 -0.018494 -0.005947 -156.336736 -46.646384 177.612138 0.710676 1.877653 0.652053 -24.279508 -41.348206 -24.921876 -4.209466 -43.443102 8.383485 -150.106919 83.746301 66.260083 100.586895 31.949859 -74.04847 -44.789191 -60.773205 -33.438024 7.35145 7.062072 -1.570893 17.608739 15.602007 -19.149692 -46.203329 -64.415429 -4.932766 -29.994331 -22.14693 5.175197 0.56923 1.648756 -0.321131 -179.882232 -49.539281 -141.240907 74.841805 72.961064 -92.827962 -5.202754 26.932831 0.935067 145.66537 13.641476 142.257141 76.277504 -52.928751 75.878251 -0.0 -0.000474 -0.000972 2.212186 -44.341011 113.50281 72.006816 -32.614304 31.608723 -88.84272 -32.772823 -157.444026 -0.0 -0.000474 -0.000972 -10.02937 -43.938498 -101.932429 -77.459519 -2.994433 -97.402176 15.94352 46.564974 -163.759887
